# xmcd
#
# Track frame offsets: 
#        150
#        14899
#        41422
#        55327
#        70425
#        89065
#        99409
#        122648
#        140417
#        166000
#        183902
#
# Disc length: 2751 seconds
#
# Revision: 0
# Processed by: cddbd v1.5.1PL2 Copyright (c) Steve Scherf et al.
# Submitted via: ExactAudioCopy v0.95b3
#
DISCID=980abd0b
DTITLE=Jeff Lasley Trio - Electric Blue
DYEAR=2005
DGENRE=Blues
TTITLE0=Freight Train
TTITLE1=Stormy Monday
TTITLE2=Chitlins Con Carne
TTITLE3=Cross Cut Saw
TTITLE4=Pawn Shop Blues
TTITLE5=Jeff's Jump
TTITLE6=Further Up The Road
TTITLE7=T-Bone Shuffle
TTITLE8=The Sky Is Crying
TTITLE9=Love Fades Away
TTITLE10=Cold Fusion
EXTD=
EXTT0=
EXTT1=
EXTT2=
EXTT3=
EXTT4=
EXTT5=
EXTT6=
EXTT7=
EXTT8=
EXTT9=
EXTT10=
PLAYORDER=
